<svg xmlns="http://www.w3.org/2000/svg" xmlns:xlink="http://www.w3.org/1999/xlink" width="375" zoomAndPan="magnify" viewBox="0 0 281.25 281.249989" height="375" preserveAspectRatio="xMidYMid meet" version="1.0"><defs><clipPath id="f97032ac92"><path d="M 80.511719 28.050781 L 200 28.050781 L 200 235.621094 L 80.511719 235.621094 Z M 80.511719 28.050781 " clip-rule="nonzero"/></clipPath></defs><g clip-path="url(#f97032ac92)"><path fill="#efdfbb" d="M 80.648438 148.074219 L 80.648438 187.09375 C 80.648438 199.984375 85.667969 212.089844 94.785156 221.210938 C 103.910156 230.332031 116.015625 235.351562 128.90625 235.351562 C 146.074219 235.351562 162.117188 226.105469 170.699219 211.222656 L 186.703125 183.523438 L 197.980469 163.957031 C 199.222656 161.839844 199.847656 159.4375 199.847656 157.03125 C 199.847656 152.097656 197.191406 147.496094 192.925781 145.046875 C 186.289062 141.234375 177.832031 143.515625 174.015625 150.109375 L 169.539062 157.902344 L 169.539062 113.457031 C 186.910156 107.65625 199.515625 91.191406 199.515625 71.871094 C 199.515625 47.742188 179.820312 28.050781 155.648438 28.050781 C 131.480469 28.050781 111.828125 47.703125 111.828125 71.871094 C 111.828125 91.191406 124.433594 107.65625 141.84375 113.457031 L 141.84375 115.902344 C 139.855469 114.824219 137.574219 114.246094 135.25 114.246094 C 128.328125 114.246094 122.566406 119.34375 121.570312 125.976562 C 119.539062 124.859375 117.257812 124.234375 114.855469 124.234375 C 107.929688 124.234375 102.167969 129.378906 101.171875 136.011719 C 99.179688 134.890625 96.902344 134.269531 94.457031 134.269531 C 86.828125 134.269531 80.648438 140.445312 80.648438 148.074219 Z M 169.582031 105.746094 L 169.582031 96.460938 C 178.121094 91.605469 183.925781 82.445312 183.925781 71.914062 C 183.925781 56.367188 171.28125 43.722656 155.734375 43.722656 C 140.1875 43.722656 127.539062 56.367188 127.539062 71.914062 C 127.539062 82.402344 133.300781 91.605469 141.886719 96.460938 L 141.886719 105.746094 C 128.539062 100.273438 119.125 87.132812 119.125 71.871094 C 119.125 51.722656 135.542969 35.304688 155.691406 35.304688 C 175.84375 35.304688 192.261719 51.722656 192.261719 71.871094 C 192.261719 87.171875 182.847656 100.273438 169.582031 105.746094 Z M 141.84375 74.402344 L 141.84375 87.628906 C 137.488281 83.773438 134.753906 78.175781 134.753906 71.914062 C 134.753906 60.390625 144.167969 50.976562 155.691406 50.976562 C 167.21875 50.976562 176.628906 60.347656 176.628906 71.914062 C 176.628906 78.175781 173.894531 83.773438 169.539062 87.628906 L 169.539062 74.402344 C 169.539062 70.710938 168.085938 67.230469 165.476562 64.617188 C 162.863281 62.003906 159.378906 60.554688 155.691406 60.554688 C 148.0625 60.554688 141.84375 66.773438 141.84375 74.402344 Z M 88.03125 187.09375 L 88.03125 148.203125 C 88.03125 144.550781 91.015625 141.609375 94.621094 141.609375 C 98.269531 141.609375 101.214844 144.550781 101.214844 148.160156 L 101.214844 159.5625 C 101.214844 161.550781 102.832031 163.167969 104.820312 163.167969 C 106.808594 163.167969 108.429688 161.550781 108.429688 159.5625 L 108.429688 138.167969 C 108.429688 134.519531 111.410156 131.574219 115.019531 131.574219 C 116.761719 131.574219 118.417969 132.238281 119.664062 133.484375 C 120.90625 134.726562 121.570312 136.386719 121.570312 138.125 L 121.570312 157.527344 C 121.570312 159.519531 123.1875 161.136719 125.175781 161.136719 C 127.167969 161.136719 128.785156 159.519531 128.785156 157.527344 L 128.785156 128.132812 C 128.785156 124.488281 131.769531 121.542969 135.378906 121.542969 C 137.117188 121.542969 138.777344 122.207031 140.019531 123.449219 C 141.265625 124.691406 141.929688 126.351562 141.929688 128.09375 L 141.929688 155.496094 C 141.929688 157.488281 143.542969 159.105469 145.535156 159.105469 C 147.523438 159.105469 149.140625 157.488281 149.140625 155.496094 L 149.140625 74.402344 C 149.140625 70.753906 152.125 67.8125 155.734375 67.8125 C 157.476562 67.8125 159.132812 68.515625 160.378906 69.761719 C 161.582031 71.003906 162.285156 72.660156 162.285156 74.402344 L 162.285156 171.460938 C 162.285156 173.121094 163.402344 174.570312 164.980469 174.984375 C 166.554688 175.398438 168.214844 174.695312 169.042969 173.28125 L 180.320312 153.675781 C 181.5625 151.558594 183.761719 150.398438 186.039062 150.398438 C 187.160156 150.398438 188.277344 150.6875 189.316406 151.269531 C 191.347656 152.46875 192.589844 154.625 192.589844 156.992188 C 192.589844 158.152344 192.300781 159.269531 191.71875 160.265625 L 180.445312 179.832031 L 164.441406 207.570312 C 157.101562 220.257812 143.503906 228.09375 128.90625 228.09375 C 117.960938 228.09375 107.679688 223.824219 99.929688 216.070312 C 92.175781 208.359375 87.90625 198.039062 87.90625 187.09375 Z M 88.03125 187.09375 " fill-opacity="1" fill-rule="nonzero"/></g></svg>