<svg xmlns="http://www.w3.org/2000/svg" xmlns:xlink="http://www.w3.org/1999/xlink" width="500" zoomAndPan="magnify" viewBox="0 0 375 374.999991" height="500" preserveAspectRatio="xMidYMid meet" version="1.0"><defs><clipPath id="0f3255c310"><path d="M 107.632812 37.5 L 267.382812 37.5 L 267.382812 315 L 107.632812 315 Z M 107.632812 37.5 " clip-rule="nonzero"/></clipPath></defs><g clip-path="url(#0f3255c310)"><path fill="#722f37" d="M 107.820312 197.960938 L 107.820312 250.121094 C 107.820312 267.355469 114.527344 283.542969 126.71875 295.734375 C 138.914062 307.929688 155.097656 314.636719 172.335938 314.636719 C 195.285156 314.636719 216.734375 302.277344 228.207031 282.378906 L 249.601562 245.351562 L 264.679688 219.191406 C 266.339844 216.363281 267.171875 213.148438 267.171875 209.933594 C 267.171875 203.339844 263.625 197.1875 257.917969 193.914062 C 249.046875 188.816406 237.742188 191.863281 232.640625 200.679688 L 226.65625 211.097656 L 226.65625 151.679688 C 249.878906 143.921875 266.730469 121.914062 266.730469 96.085938 C 266.730469 63.828125 240.402344 37.5 208.085938 37.5 C 175.773438 37.5 149.5 63.773438 149.5 96.085938 C 149.5 121.914062 166.351562 143.921875 189.628906 151.679688 L 189.628906 154.949219 C 186.96875 153.507812 183.921875 152.734375 180.816406 152.734375 C 171.5625 152.734375 163.855469 159.550781 162.527344 168.417969 C 159.808594 166.921875 156.761719 166.089844 153.546875 166.089844 C 144.289062 166.089844 136.585938 172.964844 135.257812 181.832031 C 132.59375 180.335938 129.546875 179.503906 126.277344 179.503906 C 116.078125 179.503906 107.820312 187.761719 107.820312 197.960938 Z M 226.710938 141.371094 L 226.710938 128.957031 C 238.128906 122.46875 245.890625 110.21875 245.890625 96.140625 C 245.890625 75.355469 228.984375 58.453125 208.199219 58.453125 C 187.414062 58.453125 170.507812 75.355469 170.507812 96.140625 C 170.507812 110.164062 178.210938 122.46875 189.6875 128.957031 L 189.6875 141.371094 C 171.839844 134.054688 159.257812 116.484375 159.257812 96.085938 C 159.257812 69.148438 181.207031 47.199219 208.144531 47.199219 C 235.082031 47.199219 257.03125 69.148438 257.03125 96.085938 C 257.03125 116.539062 244.449219 134.054688 226.710938 141.371094 Z M 189.628906 99.46875 L 189.628906 117.148438 C 183.808594 111.996094 180.152344 104.511719 180.152344 96.140625 C 180.152344 80.734375 192.734375 68.152344 208.144531 68.152344 C 223.550781 68.152344 236.132812 80.679688 236.132812 96.140625 C 236.132812 104.511719 232.476562 111.996094 226.65625 117.148438 L 226.65625 99.46875 C 226.65625 94.535156 224.714844 89.878906 221.222656 86.386719 C 217.730469 82.894531 213.074219 80.953125 208.144531 80.953125 C 197.945312 80.953125 189.628906 89.269531 189.628906 99.46875 Z M 117.6875 250.121094 L 117.6875 198.128906 C 117.6875 193.25 121.675781 189.316406 126.5 189.316406 C 131.375 189.316406 135.3125 193.25 135.3125 198.074219 L 135.3125 213.316406 C 135.3125 215.976562 137.472656 218.136719 140.132812 218.136719 C 142.792969 218.136719 144.957031 215.976562 144.957031 213.316406 L 144.957031 184.714844 C 144.957031 179.835938 148.945312 175.902344 153.769531 175.902344 C 156.097656 175.902344 158.3125 176.789062 159.976562 178.453125 C 161.640625 180.113281 162.527344 182.332031 162.527344 184.660156 L 162.527344 210.597656 C 162.527344 213.261719 164.6875 215.421875 167.347656 215.421875 C 170.007812 215.421875 172.171875 213.261719 172.171875 210.597656 L 172.171875 171.300781 C 172.171875 166.425781 176.160156 162.488281 180.984375 162.488281 C 183.3125 162.488281 185.527344 163.375 187.191406 165.039062 C 188.855469 166.699219 189.742188 168.917969 189.742188 171.246094 L 189.742188 207.882812 C 189.742188 210.542969 191.902344 212.707031 194.5625 212.707031 C 197.222656 212.707031 199.386719 210.542969 199.386719 207.882812 L 199.386719 99.46875 C 199.386719 94.589844 203.375 90.65625 208.199219 90.65625 C 210.527344 90.65625 212.742188 91.597656 214.40625 93.261719 C 216.015625 94.921875 216.957031 97.140625 216.957031 99.46875 L 216.957031 229.222656 C 216.957031 231.441406 218.453125 233.378906 220.558594 233.933594 C 222.664062 234.488281 224.882812 233.546875 225.992188 231.660156 L 241.066406 205.445312 C 242.730469 202.617188 245.667969 201.066406 248.714844 201.066406 C 250.210938 201.066406 251.707031 201.453125 253.09375 202.230469 C 255.808594 203.835938 257.472656 206.71875 257.472656 209.878906 C 257.472656 211.429688 257.085938 212.925781 256.308594 214.257812 L 241.234375 240.417969 L 219.839844 277.5 C 210.027344 294.460938 191.847656 304.9375 172.335938 304.9375 C 157.703125 304.9375 143.957031 299.226562 133.59375 288.863281 C 123.226562 278.554688 117.519531 264.753906 117.519531 250.121094 Z M 117.6875 250.121094 " fill-opacity="1" fill-rule="nonzero"/></g></svg>