<svg xmlns="http://www.w3.org/2000/svg" xmlns:xlink="http://www.w3.org/1999/xlink" width="500" zoomAndPan="magnify" viewBox="0 0 375 374.999991" height="500" preserveAspectRatio="xMidYMid meet" version="1.0"><defs><clipPath id="107c4be1d1"><path d="M 38 166.066406 L 82 166.066406 L 82 208.816406 L 38 208.816406 Z M 38 166.066406 " clip-rule="nonzero"/></clipPath><clipPath id="0e9c0a48a9"><path d="M 99 166.066406 L 144 166.066406 L 144 208.816406 L 99 208.816406 Z M 99 166.066406 " clip-rule="nonzero"/></clipPath><clipPath id="4e55bff8c9"><path d="M 161 166.066406 L 206 166.066406 L 206 208.816406 L 161 208.816406 Z M 161 166.066406 " clip-rule="nonzero"/></clipPath><clipPath id="5e283635d4"><path d="M 223 166.066406 L 267 166.066406 L 267 208.816406 L 223 208.816406 Z M 223 166.066406 " clip-rule="nonzero"/></clipPath><clipPath id="ff7fe14865"><path d="M 285 166.066406 L 329 166.066406 L 329 208.816406 L 285 208.816406 Z M 285 166.066406 " clip-rule="nonzero"/></clipPath></defs><rect x="-37.5" width="450" fill="#ffffff" y="-37.499999" height="449.999989" fill-opacity="1"/><rect x="-37.5" width="450" fill="#722f37" y="-37.499999" height="449.999989" fill-opacity="1"/><g clip-path="url(#107c4be1d1)"><path fill="#efdfbb" d="M 57.699219 168.039062 C 58.640625 166.066406 61.441406 166.066406 62.382812 168.039062 L 66.96875 177.65625 C 67.347656 178.449219 68.097656 179 68.96875 179.113281 L 79.527344 180.507812 C 81.691406 180.792969 82.558594 183.460938 80.976562 184.960938 L 73.25 192.300781 C 72.613281 192.90625 72.328125 193.792969 72.488281 194.65625 L 74.425781 205.136719 C 74.824219 207.285156 72.554688 208.933594 70.636719 207.890625 L 61.277344 202.804688 C 60.507812 202.386719 59.574219 202.386719 58.804688 202.804688 L 49.441406 207.890625 C 47.527344 208.933594 45.257812 207.285156 45.65625 205.136719 L 47.59375 194.65625 C 47.753906 193.792969 47.464844 192.90625 46.828125 192.300781 L 39.105469 184.960938 C 37.523438 183.460938 38.390625 180.792969 40.550781 180.507812 L 51.109375 179.113281 C 51.980469 179 52.734375 178.449219 53.113281 177.65625 Z M 57.699219 168.039062 " fill-opacity="1" fill-rule="nonzero"/></g><g clip-path="url(#0e9c0a48a9)"><path fill="#efdfbb" d="M 119.402344 168.039062 C 120.339844 166.066406 123.144531 166.066406 124.085938 168.039062 L 128.671875 177.65625 C 129.046875 178.449219 129.800781 179 130.671875 179.113281 L 141.230469 180.507812 C 143.394531 180.792969 144.261719 183.460938 142.675781 184.960938 L 134.953125 192.300781 C 134.316406 192.90625 134.027344 193.792969 134.1875 194.65625 L 136.128906 205.136719 C 136.523438 207.285156 134.257812 208.933594 132.339844 207.890625 L 122.980469 202.804688 C 122.207031 202.386719 121.277344 202.386719 120.503906 202.804688 L 111.144531 207.890625 C 109.226562 208.933594 106.960938 207.285156 107.359375 205.136719 L 109.296875 194.65625 C 109.457031 193.792969 109.167969 192.90625 108.53125 192.300781 L 100.808594 184.960938 C 99.226562 183.460938 100.09375 180.792969 102.253906 180.507812 L 112.8125 179.113281 C 113.683594 179 114.4375 178.449219 114.816406 177.65625 Z M 119.402344 168.039062 " fill-opacity="1" fill-rule="nonzero"/></g><g clip-path="url(#4e55bff8c9)"><path fill="#efdfbb" d="M 181.105469 168.039062 C 182.042969 166.066406 184.847656 166.066406 185.785156 168.039062 L 190.371094 177.65625 C 190.75 178.449219 191.503906 179 192.375 179.113281 L 202.933594 180.507812 C 205.097656 180.792969 205.960938 183.460938 204.378906 184.960938 L 196.65625 192.300781 C 196.019531 192.90625 195.730469 193.792969 195.890625 194.65625 L 197.832031 205.136719 C 198.226562 207.285156 195.960938 208.933594 194.042969 207.890625 L 184.683594 202.804688 C 183.910156 202.386719 182.980469 202.386719 182.207031 202.804688 L 172.847656 207.890625 C 170.929688 208.933594 168.664062 207.285156 169.058594 205.136719 L 171 194.65625 C 171.160156 193.792969 170.871094 192.90625 170.234375 192.300781 L 162.511719 184.960938 C 160.929688 183.460938 161.792969 180.792969 163.957031 180.507812 L 174.515625 179.113281 C 175.386719 179 176.140625 178.449219 176.519531 177.65625 Z M 181.105469 168.039062 " fill-opacity="1" fill-rule="nonzero"/></g><g clip-path="url(#5e283635d4)"><path fill="#efdfbb" d="M 242.804688 168.039062 C 243.746094 166.066406 246.550781 166.066406 247.488281 168.039062 L 252.074219 177.65625 C 252.453125 178.449219 253.207031 179 254.078125 179.113281 L 264.636719 180.507812 C 266.796875 180.792969 267.664062 183.460938 266.082031 184.960938 L 258.359375 192.300781 C 257.722656 192.90625 257.433594 193.792969 257.59375 194.65625 L 259.53125 205.136719 C 259.929688 207.285156 257.664062 208.933594 255.746094 207.890625 L 246.386719 202.804688 C 245.613281 202.386719 244.683594 202.386719 243.910156 202.804688 L 234.550781 207.890625 C 232.632812 208.933594 230.367188 207.285156 230.761719 205.136719 L 232.703125 194.65625 C 232.863281 193.792969 232.574219 192.90625 231.9375 192.300781 L 224.214844 184.960938 C 222.628906 183.460938 223.496094 180.792969 225.660156 180.507812 L 236.21875 179.113281 C 237.089844 179 237.84375 178.449219 238.21875 177.65625 Z M 242.804688 168.039062 " fill-opacity="1" fill-rule="nonzero"/></g><g clip-path="url(#ff7fe14865)"><path fill="#efdfbb" d="M 304.507812 168.039062 C 305.449219 166.066406 308.25 166.066406 309.191406 168.039062 L 313.777344 177.65625 C 314.15625 178.449219 314.910156 179 315.78125 179.113281 L 326.339844 180.507812 C 328.5 180.792969 329.367188 183.460938 327.785156 184.960938 L 320.0625 192.300781 C 319.425781 192.90625 319.136719 193.792969 319.296875 194.65625 L 321.234375 205.136719 C 321.632812 207.285156 319.363281 208.933594 317.449219 207.890625 L 308.085938 202.804688 C 307.316406 202.386719 306.382812 202.386719 305.613281 202.804688 L 296.253906 207.890625 C 294.335938 208.933594 292.066406 207.285156 292.464844 205.136719 L 294.402344 194.65625 C 294.5625 193.792969 294.277344 192.90625 293.640625 192.300781 L 285.914062 184.960938 C 284.332031 183.460938 285.199219 180.792969 287.363281 180.507812 L 297.921875 179.113281 C 298.792969 179 299.542969 178.449219 299.921875 177.65625 Z M 304.507812 168.039062 " fill-opacity="1" fill-rule="nonzero"/></g></svg>