<svg xmlns="http://www.w3.org/2000/svg" xmlns:xlink="http://www.w3.org/1999/xlink" width="500" zoomAndPan="magnify" viewBox="0 0 375 374.999991" height="500" preserveAspectRatio="xMidYMid meet" version="1.0"><defs><clipPath id="4e3b5ad5c6"><path d="M 166.183594 46 L 208.933594 46 L 208.933594 90 L 166.183594 90 Z M 166.183594 46 " clip-rule="nonzero"/></clipPath><clipPath id="b6f46d5b8c"><path d="M 166.183594 108 L 208.933594 108 L 208.933594 152 L 166.183594 152 Z M 166.183594 108 " clip-rule="nonzero"/></clipPath><clipPath id="3f50d6baa1"><path d="M 166.183594 169 L 208.933594 169 L 208.933594 214 L 166.183594 214 Z M 166.183594 169 " clip-rule="nonzero"/></clipPath><clipPath id="80b2336990"><path d="M 166.183594 231 L 208.933594 231 L 208.933594 275 L 166.183594 275 Z M 166.183594 231 " clip-rule="nonzero"/></clipPath><clipPath id="32f2daaec0"><path d="M 166.183594 293 L 208.933594 293 L 208.933594 337 L 166.183594 337 Z M 166.183594 293 " clip-rule="nonzero"/></clipPath></defs><rect x="-37.5" width="450" fill="#ffffff" y="-37.499999" height="449.999989" fill-opacity="1"/><rect x="-37.5" width="450" fill="#722f37" y="-37.499999" height="449.999989" fill-opacity="1"/><g clip-path="url(#4e3b5ad5c6)"><path fill="#efdfbb" d="M 206.960938 65.808594 C 208.929688 66.746094 208.929688 69.550781 206.960938 70.488281 L 197.339844 75.078125 C 196.546875 75.453125 196 76.207031 195.886719 77.078125 L 194.492188 87.636719 C 194.207031 89.800781 191.539062 90.664062 190.035156 89.082031 L 182.699219 81.359375 C 182.09375 80.722656 181.207031 80.433594 180.34375 80.59375 L 169.863281 82.535156 C 167.714844 82.929688 166.066406 80.664062 167.109375 78.746094 L 172.191406 69.386719 C 172.609375 68.613281 172.609375 67.683594 172.191406 66.910156 L 167.109375 57.550781 C 166.066406 55.632812 167.714844 53.367188 169.863281 53.761719 L 180.34375 55.703125 C 181.207031 55.863281 182.09375 55.574219 182.699219 54.9375 L 190.035156 47.214844 C 191.539062 45.632812 194.207031 46.496094 194.492188 48.660156 L 195.886719 59.21875 C 196 60.089844 196.546875 60.84375 197.339844 61.222656 Z M 206.960938 65.808594 " fill-opacity="1" fill-rule="nonzero"/></g><g clip-path="url(#b6f46d5b8c)"><path fill="#efdfbb" d="M 206.960938 127.511719 C 208.929688 128.449219 208.929688 131.253906 206.960938 132.191406 L 197.339844 136.777344 C 196.546875 137.15625 196 137.910156 195.886719 138.78125 L 194.492188 149.339844 C 194.207031 151.503906 191.539062 152.367188 190.035156 150.785156 L 182.699219 143.0625 C 182.09375 142.425781 181.207031 142.136719 180.34375 142.296875 L 169.863281 144.234375 C 167.714844 144.632812 166.066406 142.367188 167.109375 140.449219 L 172.191406 131.089844 C 172.609375 130.316406 172.609375 129.386719 172.191406 128.613281 L 167.109375 119.253906 C 166.066406 117.335938 167.714844 115.070312 169.863281 115.464844 L 180.34375 117.40625 C 181.207031 117.566406 182.09375 117.277344 182.699219 116.640625 L 190.035156 108.917969 C 191.539062 107.335938 194.207031 108.199219 194.492188 110.363281 L 195.886719 120.921875 C 196 121.792969 196.546875 122.546875 197.339844 122.921875 Z M 206.960938 127.511719 " fill-opacity="1" fill-rule="nonzero"/></g><g clip-path="url(#3f50d6baa1)"><path fill="#efdfbb" d="M 206.960938 189.210938 C 208.929688 190.152344 208.929688 192.953125 206.960938 193.894531 L 197.339844 198.480469 C 196.546875 198.859375 196 199.613281 195.886719 200.484375 L 194.492188 211.042969 C 194.207031 213.203125 191.539062 214.070312 190.035156 212.488281 L 182.699219 204.765625 C 182.09375 204.128906 181.207031 203.839844 180.34375 204 L 169.863281 205.9375 C 167.714844 206.335938 166.066406 204.066406 167.109375 202.152344 L 172.191406 192.789062 C 172.609375 192.019531 172.609375 191.089844 172.191406 190.316406 L 167.109375 180.957031 C 166.066406 179.039062 167.714844 176.769531 169.863281 177.167969 L 180.34375 179.105469 C 181.207031 179.265625 182.09375 178.980469 182.699219 178.34375 L 190.035156 170.617188 C 191.539062 169.035156 194.207031 169.902344 194.492188 172.066406 L 195.886719 182.625 C 196 183.496094 196.546875 184.246094 197.339844 184.625 Z M 206.960938 189.210938 " fill-opacity="1" fill-rule="nonzero"/></g><g clip-path="url(#80b2336990)"><path fill="#efdfbb" d="M 206.960938 250.914062 C 208.929688 251.855469 208.929688 254.65625 206.960938 255.597656 L 197.339844 260.183594 C 196.546875 260.5625 196 261.316406 195.886719 262.183594 L 194.492188 272.742188 C 194.207031 274.90625 191.539062 275.773438 190.035156 274.191406 L 182.699219 266.464844 C 182.09375 265.828125 181.207031 265.542969 180.34375 265.703125 L 169.863281 267.640625 C 167.714844 268.039062 166.066406 265.769531 167.109375 263.851562 L 172.191406 254.492188 C 172.609375 253.722656 172.609375 252.789062 172.191406 252.019531 L 167.109375 242.660156 C 166.066406 240.742188 167.714844 238.472656 169.863281 238.871094 L 180.34375 240.808594 C 181.207031 240.96875 182.09375 240.683594 182.699219 240.046875 L 190.035156 232.320312 C 191.539062 230.738281 194.207031 231.605469 194.492188 233.769531 L 195.886719 244.328125 C 196 245.195312 196.546875 245.949219 197.339844 246.328125 Z M 206.960938 250.914062 " fill-opacity="1" fill-rule="nonzero"/></g><g clip-path="url(#32f2daaec0)"><path fill="#efdfbb" d="M 206.960938 312.617188 C 208.929688 313.554688 208.929688 316.359375 206.960938 317.300781 L 197.339844 321.886719 C 196.546875 322.265625 196 323.015625 195.886719 323.886719 L 194.492188 334.445312 C 194.207031 336.609375 191.539062 337.476562 190.035156 335.894531 L 182.699219 328.167969 C 182.09375 327.53125 181.207031 327.246094 180.34375 327.402344 L 169.863281 329.34375 C 167.714844 329.742188 166.066406 327.472656 167.109375 325.554688 L 172.191406 316.195312 C 172.609375 315.421875 172.609375 314.492188 172.191406 313.722656 L 167.109375 304.359375 C 166.066406 302.445312 167.714844 300.175781 169.863281 300.574219 L 180.34375 302.511719 C 181.207031 302.671875 182.09375 302.382812 182.699219 301.746094 L 190.035156 294.023438 C 191.539062 292.441406 194.207031 293.308594 194.492188 295.46875 L 195.886719 306.027344 C 196 306.898438 196.546875 307.652344 197.339844 308.03125 Z M 206.960938 312.617188 " fill-opacity="1" fill-rule="nonzero"/></g></svg>